<svg width="75.000000" height="75.000000" viewBox="0 0 75 75" fill="none" xmlns="http://www.w3.org/2000/svg" xmlns:xlink="http://www.w3.org/1999/xlink">
	<desc>
			Created with Pixso.
	</desc>
	<defs>
		<clipPath id="clip109_4869">
			<rect id="fluent:globe-20-regular" rx="0.000000" width="74.000000" height="74.000000" transform="translate(0.500000 0.500000)" fill="white" fill-opacity="0"/>
		</clipPath>
	</defs>
	<rect id="fluent:globe-20-regular" rx="0.000000" width="74.000000" height="74.000000" transform="translate(0.500000 0.500000)" fill="#FFFFFF" fill-opacity="0"/>
	<g clip-path="url(#clip109_4869)">
		<path id="Vector" d="M37.5 67.5C45.45 67.5 53.08 64.33 58.71 58.71C64.33 53.08 67.5 45.45 67.5 37.5C67.5 29.54 64.33 21.91 58.71 16.28C53.08 10.66 45.45 7.5 37.5 7.5C29.54 7.5 21.91 10.66 16.28 16.28C10.66 21.91 7.5 29.54 7.5 37.5C7.5 45.45 10.66 53.08 16.28 58.71C21.91 64.33 29.54 67.5 37.5 67.5ZM37.5 11.25C39.96 11.25 42.77 13.46 45.08 18.4C45.89 20.15 46.6 22.16 47.17 24.37L27.82 24.37C28.39 22.16 29.1 20.15 29.92 18.4C32.22 13.46 35.03 11.25 37.5 11.25ZM26.52 16.81C25.41 19.24 24.55 21.77 23.95 24.37L14.76 24.37C17.92 18.9 22.95 14.75 28.92 12.68C28.02 13.92 27.21 15.32 26.52 16.81ZM23.22 28.12C22.73 31.22 22.49 34.36 22.5 37.5C22.5 40.76 22.75 43.92 23.22 46.87L12.97 46.87C11.83 43.88 11.24 40.7 11.25 37.5C11.25 34.2 11.86 31.03 12.97 28.12L23.22 28.12L23.22 28.12ZM23.95 50.62C24.61 53.41 25.48 55.95 26.52 58.18C27.21 59.67 28.02 61.08 28.92 62.31C22.95 60.24 17.92 56.09 14.76 50.62L23.96 50.62L23.95 50.62ZM27.82 50.62L47.17 50.62C46.66 52.67 45.95 54.67 45.07 56.59C42.78 61.53 39.96 63.75 37.5 63.75C35.03 63.75 32.22 61.53 29.91 56.59C29.03 54.67 28.33 52.67 27.82 50.62L27.82 50.62ZM47.97 46.87L27.02 46.87C26.5 43.77 26.24 40.64 26.25 37.5C26.25 34.18 26.52 31.03 27.02 28.12L47.97 28.12C48.47 31.03 48.75 34.18 48.75 37.5C48.75 40.81 48.47 43.96 47.97 46.87ZM51.04 50.62L60.24 50.62C57.07 56.09 52.04 60.24 46.07 62.31C46.97 61.08 47.78 59.67 48.48 58.18C49.51 55.95 50.38 53.41 51.04 50.62ZM62.02 46.87L51.77 46.87C52.24 43.92 52.5 40.76 52.5 37.5C52.5 34.23 52.24 31.08 51.77 28.12L62.02 28.12C63.13 31.03 63.75 34.2 63.75 37.5C63.75 40.8 63.13 43.96 62.02 46.87L62.02 46.87ZM46.07 12.68C52.04 14.75 57.07 18.9 60.24 24.37L51.03 24.37C50.44 21.77 49.58 19.24 48.47 16.81C47.8 15.36 47 13.98 46.06 12.68L46.07 12.68Z" fill="#FFFFFF" fill-opacity="1.000000" fill-rule="nonzero"/>
	</g>
</svg>
