<svg width="595.619019" height="33.257812" viewBox="0 0 595.619 33.2578" fill="none" xmlns="http://www.w3.org/2000/svg" xmlns:xlink="http://www.w3.org/1999/xlink">
	<desc>
			Created with Pixso.
	</desc>
	<defs/>
	<path id="© 2021 HolidayTime. All rights reserved." d="M53.34 9.14Q54.39 6.94 54.39 5.07Q54.39 3.25 53.56 1.98Q53.37 1.69 53.13 1.42Q52.98 1.25 52.81 1.1Q51.57 0 49.35 0Q47.48 0 45.9 0.51Q44.32 1.03 42.59 2.3L43.34 4.46Q44.71 3.55 45.94 3.04Q46.72 2.7 47.53 2.58Q47.99 2.51 48.46 2.51Q49.42 2.51 50.03 2.75Q50.65 2.98 50.97 3.4Q51.3 3.81 51.44 4.39Q51.59 4.96 51.59 5.65Q51.59 7.09 50.81 8.78Q50.04 10.47 48.72 12.29Q47.41 14.1 45.79 15.9Q44.17 17.7 42.57 19.35Q40.97 20.98 39.55 22.34Q38.12 23.68 37.23 24.58L37.01 25.62L50.65 25.62L51.16 22.96L43.77 22.96L41.54 23.36L41.54 23.22L43.52 21.66Q45.29 19.97 47.19 17.87Q49.1 15.76 50.7 13.55Q52.31 11.33 53.34 9.14ZM57.43 10.71Q56.62 13.96 56.62 17.74Q56.62 19.32 56.95 20.82Q57.27 22.31 58.05 23.48Q58.37 23.98 58.79 24.39Q59.35 24.95 60.06 25.35Q61.31 26.05 63.14 26.05Q64.61 26.05 65.87 25.56Q66.85 25.17 67.71 24.49Q69.69 22.93 71.05 20.39Q72.4 17.85 73.09 14.68Q73.52 12.78 73.68 10.85Q73.8 9.57 73.8 8.27Q73.8 3.95 72.14 1.97Q71.69 1.44 71.14 1.05Q69.66 0 67.42 0Q66.33 0 65.31 0.29Q64.13 0.62 63.06 1.35Q61.09 2.69 59.66 5.08Q58.25 7.45 57.43 10.71ZM90.78 9.14Q91.83 6.94 91.83 5.07Q91.83 3.25 91 1.98Q90.81 1.69 90.57 1.42Q90.42 1.25 90.25 1.1Q89.01 0 86.79 0Q84.92 0 83.34 0.51Q81.76 1.03 80.03 2.3L80.78 4.46Q82.15 3.55 83.38 3.04Q84.16 2.7 84.97 2.58Q85.43 2.51 85.9 2.51Q86.86 2.51 87.47 2.75Q88.09 2.98 88.41 3.4Q88.74 3.81 88.88 4.39Q89.03 4.96 89.03 5.65Q89.03 7.09 88.25 8.78Q87.48 10.47 86.16 12.29Q84.85 14.1 83.23 15.9Q81.61 17.7 80.01 19.35Q78.41 20.98 76.99 22.34Q75.56 23.68 74.67 24.58L74.45 25.62L88.09 25.62L88.6 22.96L81.21 22.96L78.98 23.36L78.98 23.22L80.96 21.66Q82.73 19.97 84.63 17.87Q86.54 15.76 88.14 13.55Q89.75 11.33 90.78 9.14ZM99.61 22.96L94.82 22.96L94.28 25.62L106.41 25.62L106.96 22.96L102.27 22.96L107.17 0L105.95 0L97.05 6.11L98.06 7.95L102.39 5.1L104.14 3.41L103.35 5.53L99.61 22.96ZM331.66 18.64L340.45 18.64L341.45 25.62L344.23 25.62L340.59 0.03L339.27 0.03L324.72 25.62L327.78 25.62L331.66 18.64ZM177.51 1.26Q177.34 1.64 177.34 2.11Q177.34 2.61 177.53 3.01Q177.67 3.28 177.89 3.51Q178.13 3.74 178.41 3.88Q178.8 4.06 179.28 4.06Q179.75 4.06 180.13 3.89Q180.43 3.75 180.68 3.51Q180.93 3.26 181.08 2.95Q181.26 2.58 181.26 2.11Q181.26 1.68 181.1 1.32Q180.95 0.99 180.68 0.72Q180.4 0.44 180.07 0.3Q179.71 0.14 179.28 0.14Q178.84 0.14 178.47 0.3Q178.15 0.45 177.89 0.72Q177.65 0.96 177.51 1.26ZM256.35 1.26Q256.18 1.64 256.18 2.11Q256.18 2.61 256.37 3.01Q256.51 3.28 256.73 3.51Q256.97 3.74 257.25 3.88Q257.64 4.06 258.12 4.06Q258.59 4.06 258.97 3.89Q259.27 3.75 259.51 3.51Q259.77 3.26 259.92 2.95Q260.1 2.58 260.1 2.11Q260.1 1.68 259.94 1.32Q259.79 0.99 259.51 0.72Q259.24 0.44 258.91 0.3Q258.55 0.14 258.12 0.14Q257.68 0.14 257.31 0.3Q256.99 0.45 256.73 0.72Q256.49 0.96 256.35 1.26ZM393.3 1.26Q393.12 1.64 393.12 2.11Q393.12 2.61 393.32 3.01Q393.45 3.28 393.67 3.51Q393.91 3.74 394.19 3.88Q394.58 4.06 395.06 4.06Q395.53 4.06 395.92 3.89Q396.21 3.75 396.46 3.51Q396.72 3.26 396.86 2.95Q397.04 2.58 397.04 2.11Q397.04 1.68 396.88 1.32Q396.74 0.99 396.46 0.72Q396.19 0.44 395.86 0.3Q395.5 0.14 395.06 0.14Q394.62 0.14 394.25 0.3Q393.93 0.45 393.67 0.72Q393.43 0.96 393.3 1.26ZM127.08 14.07L138.52 14.07L136.08 25.62L138.96 25.62L144.29 0.43L141.41 0.43L139.1 11.4L127.69 11.4L130 0.43L127.11 0.43L121.79 25.62L124.67 25.62L127.08 14.07ZM165.95 22.35Q165.95 21.95 166.07 21.34L170.45 0.43L167.76 0.43L163.29 21.48Q163.08 22.53 163.08 23.25Q163.08 24.79 163.83 25.37Q163.83 25.37 163.84 25.38Q164.59 25.95 165.85 25.95Q166.21 25.95 166.66 25.9Q167.11 25.84 167.56 25.76Q168.01 25.69 168.44 25.57Q168.87 25.45 169.2 25.26L169.2 23.22Q168.51 23.46 168.03 23.56Q167.55 23.65 166.82 23.65Q166.62 23.65 166.45 23.56Q166.31 23.49 166.19 23.34Q165.95 23.03 165.95 22.35ZM194.97 22.06Q195.11 20.83 195.41 19.43L199.44 0.43L196.74 0.43L195.16 7.91Q194.75 7.76 194.39 7.64Q194.04 7.52 193.62 7.45Q193.21 7.37 192.74 7.33Q192.28 7.3 191.63 7.3Q189.86 7.3 188.41 7.98Q187.94 8.19 187.5 8.49Q186.83 8.93 186.24 9.47Q185.27 10.37 184.53 11.51Q183.35 13.35 182.73 15.6Q182.12 17.85 182.12 19.97Q182.12 23.14 183.29 24.6Q183.79 25.22 184.43 25.57Q185.3 26.05 186.44 26.05Q186.99 26.05 187.52 25.95Q187.9 25.87 188.26 25.75Q188.71 25.6 189.13 25.39Q189.55 25.19 189.94 24.95Q190.73 24.44 191.37 23.8Q192.02 23.17 192.45 22.57L192.6 22.57L193.1 25.69L194.9 25.69Q194.87 25.37 194.85 25.05Q194.83 24.73 194.83 24.33Q194.83 23.29 194.97 22.06ZM246.2 3.09L253.66 3.09L254.19 0.43L236.48 0.43L235.95 3.09L243.32 3.09L238.57 25.62L241.45 25.62L246.2 3.09ZM350.63 22.35Q350.63 21.95 350.75 21.34L355.13 0.43L352.44 0.43L347.97 21.48Q347.76 22.53 347.76 23.25Q347.76 24.79 348.51 25.37L348.52 25.38Q349.27 25.95 350.53 25.95Q350.89 25.95 351.34 25.9Q351.79 25.84 352.24 25.76Q352.69 25.69 353.12 25.57Q353.55 25.45 353.88 25.26L353.88 23.22Q353.19 23.46 352.71 23.56Q352.23 23.65 351.5 23.65Q351.3 23.65 351.13 23.56Q350.99 23.49 350.87 23.34Q350.63 23.03 350.63 22.35ZM360.35 22.35Q360.35 21.95 360.47 21.34L364.85 0.43L362.16 0.43L357.69 21.48Q357.48 22.53 357.48 23.25Q357.48 24.79 358.23 25.37L358.24 25.38Q358.99 25.95 360.25 25.95Q360.61 25.95 361.06 25.9Q361.51 25.84 361.96 25.76Q362.41 25.69 362.84 25.57Q363.27 25.45 363.6 25.26L363.6 23.22Q362.91 23.46 362.43 23.56Q361.95 23.65 361.22 23.65Q361.02 23.65 360.85 23.56Q360.71 23.49 360.59 23.34Q360.35 23.03 360.35 22.35ZM428.72 15.37L426.57 25.62L429.26 25.62L431.57 14.75Q432.03 12.62 432.03 11.11Q432.03 8.88 431.02 8.04Q430.02 7.19 428.25 7.19Q427.07 7.19 426.06 7.54Q425.05 7.88 424.18 8.4Q423.32 8.92 422.65 9.53Q421.99 10.15 421.52 10.72L421.38 10.72L423.61 0.43L420.91 0.43L415.58 25.62L418.29 25.62L420.55 14.72Q420.91 13.86 421.61 12.92Q421.98 12.43 422.4 11.98Q422.78 11.59 423.21 11.23Q424.11 10.47 425.08 9.99Q426.06 9.5 427 9.5Q428.15 9.5 428.68 10.06Q429.23 10.61 429.23 11.95Q429.23 12.59 429.08 13.44Q428.94 14.29 428.72 15.37ZM586.51 22.06Q586.65 20.83 586.94 19.43L590.98 0.43L588.28 0.43L586.69 7.91Q586.29 7.76 585.93 7.64Q585.58 7.52 585.16 7.45Q584.74 7.37 584.28 7.33Q583.81 7.3 583.16 7.3Q581.4 7.3 579.95 7.98Q579.48 8.19 579.04 8.49Q578.37 8.93 577.78 9.47Q576.81 10.37 576.07 11.51Q574.88 13.35 574.27 15.6Q573.66 17.85 573.66 19.97Q573.66 23.14 574.83 24.6Q575.33 25.22 575.97 25.57Q576.84 26.05 577.98 26.05Q578.53 26.05 579.06 25.95Q579.43 25.87 579.8 25.75Q580.24 25.6 580.67 25.39Q581.08 25.19 581.47 24.95Q582.27 24.44 582.91 23.8Q583.56 23.17 583.99 22.57L584.14 22.57L584.64 25.69L586.44 25.69Q586.4 25.37 586.39 25.05Q586.37 24.73 586.37 24.33Q586.37 23.29 586.51 22.06ZM1.01 9.84Q3.05e-5 12.19 3.05e-5 15.18Q3.05e-5 18.17 0.89 20.54Q1.76 22.8 3.33 24.39Q3.39 24.45 3.45 24.51Q3.61 24.66 3.77 24.81Q5.33 26.21 7.45 26.99Q9.79 27.86 12.67 27.86Q14.99 27.86 17.07 27.16Q17.32 27.08 17.56 26.99Q19.27 26.35 20.66 25.3Q21.15 24.93 21.6 24.51Q21.71 24.4 21.82 24.3Q23.39 22.74 24.33 20.54Q25.34 18.17 25.34 15.18Q25.34 12.19 24.33 9.84Q23.39 7.63 21.82 6.08Q21.71 5.97 21.6 5.87Q21.12 5.41 20.59 5.02Q19.22 4 17.56 3.38Q17.32 3.29 17.07 3.2Q14.99 2.51 12.67 2.51Q10.35 2.51 8.27 3.2Q8.02 3.29 7.77 3.38Q6.11 4 4.75 5.02Q4.22 5.41 3.74 5.87Q3.69 5.92 3.63 5.97Q1.99 7.56 1.01 9.84ZM59.8 20.61Q59.43 19.43 59.43 17.6Q59.43 14.32 60.08 11.55Q60.73 8.78 61.79 6.76Q62.85 4.74 64.2 3.62Q65.42 2.62 66.7 2.52Q66.85 2.51 66.99 2.51Q68.69 2.51 69.6 3.35Q69.91 3.64 70.12 4.02Q70.99 5.53 70.99 8.63Q70.99 11.1 70.55 13.49Q70.49 13.78 70.43 14.07Q69.88 16.73 68.9 18.86Q67.93 20.98 66.56 22.26Q65.52 23.23 64.32 23.46Q63.96 23.53 63.57 23.53Q63.41 23.53 63.25 23.52Q62.66 23.48 62.08 23.29Q62.03 23.27 61.99 23.25Q61.3 22.99 60.74 22.41Q60.16 21.77 59.8 20.61ZM438.55 7.62L435.89 7.62L435.34 9.93L438.05 9.93L435.6 21.55Q435.42 22.46 435.42 23.07Q435.42 24.43 436.1 25.17Q436.91 26.05 438.69 26.05Q439.77 26.05 440.96 25.78Q442.16 25.52 442.91 25.09L442.91 22.89Q442.19 23.32 441.47 23.54Q440.75 23.75 439.88 23.75Q439.09 23.75 438.69 23.43Q438.3 23.1 438.3 22.24Q438.3 21.95 438.35 21.59Q438.41 21.23 438.48 20.8L440.75 9.93L445.42 9.93L445.97 7.62L441.25 7.62L442.19 3.23L439.31 4.06L438.55 7.62ZM340.16 16.04L333.07 16.04L337.39 8.45L339.01 4.57L339.05 4.57L339.12 8.38L340.16 16.04ZM3.31 19.59Q2.52 17.67 2.52 15.18Q2.52 12.7 3.31 10.78Q4.1 8.85 5.47 7.55Q5.8 7.24 6.15 6.97Q7.28 6.09 8.7 5.58Q10.55 4.89 12.67 4.89Q14.8 4.89 16.65 5.58Q18.09 6.1 19.23 7Q19.56 7.26 19.87 7.55Q21.24 8.85 22.03 10.78Q22.82 12.7 22.82 15.18Q22.82 17.67 22.03 19.59Q21.24 21.52 19.87 22.82Q19.61 23.06 19.35 23.28Q18.16 24.24 16.65 24.8Q14.8 25.48 12.67 25.48Q10.55 25.48 8.7 24.8Q7.21 24.25 6.04 23.31Q5.75 23.08 5.47 22.82Q4.1 21.52 3.31 19.59ZM213.48 18.87Q213.52 18.7 213.55 18.53L215.82 8.02Q214.56 7.62 213.1 7.4Q211.65 7.16 210.64 7.16Q207.87 7.16 205.9 8.38Q204.78 9.08 203.89 10Q203.23 10.69 202.69 11.51Q201.45 13.42 200.85 15.8Q200.26 18.17 200.26 20.47Q200.26 23.98 201.96 25.29Q202.96 26.05 204.55 26.05Q205.49 26.05 206.32 25.77Q206.35 25.76 206.38 25.75Q207.01 25.53 207.58 25.21Q207.8 25.09 208.01 24.95Q208.76 24.44 209.39 23.8Q210.02 23.17 210.45 22.57L210.6 22.57L211.1 25.69L213.12 25.69Q213.04 25.3 213.04 24.82L213.04 23.79Q213.04 22.6 213.15 21.24Q213.25 20.04 213.48 18.87ZM145.89 14.8Q145.15 17.16 145.15 20.01Q145.15 20.49 145.21 20.97Q145.28 21.59 145.45 22.21Q145.63 22.82 145.93 23.36Q146.16 23.77 146.46 24.15Q146.49 24.18 146.51 24.21Q147.2 25.03 148.26 25.54Q149.36 26.05 150.98 26.05Q152.05 26.05 153.04 25.76Q153.84 25.51 154.58 25.07Q156.24 24.08 157.48 22.35Q158.72 20.62 159.43 18.29Q160.13 15.94 160.13 13.24Q160.13 12.05 159.84 10.96Q159.6 10.05 159.11 9.32Q159 9.16 158.88 9.01Q158.78 8.88 158.66 8.75Q158.05 8.08 157.16 7.68Q156.1 7.19 154.58 7.19Q153.66 7.19 152.79 7.4Q151.83 7.64 150.93 8.13Q149.22 9.07 147.92 10.76Q146.63 12.45 145.89 14.8ZM272.3 15.44L270.14 25.62L272.84 25.62L275.19 14.29Q275.54 13.57 276.17 12.74Q276.21 12.68 276.25 12.63Q276.85 11.86 277.59 11.19Q278.38 10.47 279.23 9.99Q280.08 9.5 280.84 9.5Q281.69 9.5 282.09 9.92Q282.13 9.96 282.16 10.01Q282.56 10.51 282.56 11.47Q282.56 12.09 282.44 12.91Q282.31 13.74 282.09 14.79L279.83 25.62L282.52 25.62L284.79 14.82Q285.34 12.34 285.34 10.83Q285.34 8.74 284.45 7.97Q283.57 7.19 281.92 7.19Q280.98 7.19 280.04 7.54Q279.79 7.62 279.56 7.73Q278.89 8.02 278.26 8.42Q277.73 8.76 277.24 9.16Q276.96 9.39 276.7 9.65Q275.98 10.32 275.43 11.01Q275.43 9.21 274.87 8.2Q274.76 8 274.6 7.84Q273.99 7.19 272.7 7.19Q271.55 7.19 270.59 7.54Q269.64 7.88 268.83 8.38Q268.02 8.88 267.35 9.51Q266.69 10.15 266.12 10.72L265.97 10.72L266.19 7.62L264.28 7.62L260.45 25.62L263.16 25.62L265.54 14.07Q265.9 13.42 266.52 12.62Q267.15 11.83 267.91 11.13Q268.66 10.43 269.53 9.96Q270.3 9.55 271.1 9.5Q271.19 9.5 271.29 9.5Q272.01 9.5 272.38 9.85Q272.46 9.93 272.52 10.02Q272.88 10.54 272.88 11.51Q272.88 12.23 272.73 13.21Q272.59 14.17 272.3 15.44ZM297.66 25.5Q299.38 24.94 300.63 23.86L299.77 22.13Q299.05 22.71 297.73 23.23Q296.42 23.75 294.84 23.75Q293.4 23.75 292.54 23.05Q292.25 22.82 292.03 22.51Q291.13 21.26 291.13 19.29Q291.13 18.82 291.2 18.21Q291.27 17.6 291.42 16.91Q291.92 16.95 292.39 16.97Q292.86 16.98 293.29 16.98Q298.04 16.98 300.53 15.53Q302.07 14.62 302.65 13.29Q303.01 12.48 303.01 11.51Q303.01 10.8 302.82 10.15Q302.77 10.01 302.72 9.87Q302.62 9.61 302.48 9.36Q302.22 8.9 301.82 8.51Q301.21 7.91 300.25 7.55Q299.3 7.19 298 7.19Q297.66 7.19 297.33 7.22Q295.89 7.36 294.5 8.05Q292.78 8.92 291.43 10.54Q290.09 12.16 289.26 14.51Q288.43 16.84 288.43 19.79Q288.43 22.74 289.89 24.4Q290.1 24.63 290.33 24.83Q291.75 26.05 294.22 26.05Q294.48 26.05 294.74 26.04Q296.21 25.97 297.66 25.5ZM453.56 19.14Q453.92 19.73 453.92 20.54Q453.92 21.82 453.3 22.57Q453.11 22.8 452.86 22.98Q451.8 23.75 450.03 23.75Q448.81 23.75 447.67 23.44Q447.64 23.44 447.6 23.43Q446.44 23.1 445.72 22.64L444.7 24.9Q445.53 25.4 446.88 25.73Q448.24 26.05 449.85 26.05Q453.02 26.05 454.91 24.6Q455.48 24.15 455.89 23.59Q456.81 22.29 456.81 20.33Q456.81 19.11 456.33 18.21Q455.96 17.5 455.43 16.93Q455.3 16.78 455.15 16.64Q454.63 16.17 454.07 15.77Q453.84 15.6 453.6 15.46Q452.77 14.93 452.05 14.43Q451.33 13.93 450.86 13.37Q450.66 13.13 450.54 12.86Q450.39 12.49 450.39 12.05Q450.39 11.26 450.76 10.72Q451 10.37 451.38 10.13Q452.38 9.5 453.89 9.5Q456.37 9.5 457.81 10.32L458.71 8.16Q457.88 7.69 456.83 7.45Q455.8 7.19 453.89 7.19Q452.52 7.19 451.35 7.57Q450.18 7.95 449.33 8.62Q448.62 9.17 448.16 9.89Q448.08 10.02 448 10.16Q447.77 10.58 447.65 11.02Q447.52 11.52 447.52 12.05Q447.52 13.31 447.98 14.16Q448.23 14.62 448.56 15.01Q448.84 15.35 449.17 15.64Q449.89 16.26 450.72 16.77Q451.55 17.27 452.26 17.8Q452.98 18.32 453.45 18.97Q453.51 19.05 453.56 19.14ZM491.34 25.5Q493.06 24.94 494.31 23.86L493.45 22.13Q492.73 22.71 491.41 23.23Q490.1 23.75 488.52 23.75Q487.08 23.75 486.22 23.05Q485.93 22.82 485.71 22.51Q484.81 21.26 484.81 19.29Q484.81 18.82 484.88 18.21Q484.95 17.6 485.1 16.91Q485.6 16.95 486.07 16.97Q486.54 16.98 486.97 16.98Q491.72 16.98 494.21 15.53Q495.75 14.62 496.33 13.29Q496.69 12.48 496.69 11.51Q496.69 10.8 496.5 10.15Q496.45 10.01 496.4 9.87Q496.3 9.61 496.16 9.36Q495.9 8.9 495.5 8.51Q494.89 7.91 493.93 7.55Q492.98 7.19 491.68 7.19Q491.34 7.19 491.01 7.22Q489.57 7.36 488.18 8.05Q486.46 8.92 485.11 10.54Q483.77 12.16 482.94 14.51Q482.11 16.84 482.11 19.79Q482.11 22.74 483.57 24.4Q483.78 24.63 484.01 24.83Q485.44 26.05 487.9 26.05Q488.16 26.05 488.42 26.04Q489.89 25.97 491.34 25.5ZM505.94 19.14Q506.3 19.73 506.3 20.54Q506.3 21.82 505.68 22.57Q505.49 22.8 505.24 22.98Q504.18 23.75 502.41 23.75Q501.19 23.75 500.05 23.44Q500.02 23.44 499.98 23.43Q498.82 23.1 498.1 22.64L497.08 24.9Q497.91 25.4 499.26 25.73Q500.62 26.05 502.23 26.05Q505.4 26.05 507.29 24.6Q507.86 24.15 508.27 23.59Q509.19 22.29 509.19 20.33Q509.19 19.11 508.71 18.21Q508.34 17.5 507.81 16.93Q507.68 16.78 507.53 16.64Q507.01 16.17 506.45 15.77Q506.22 15.6 505.98 15.46Q505.15 14.93 504.43 14.43Q503.71 13.93 503.24 13.37Q503.04 13.13 502.92 12.86Q502.77 12.49 502.77 12.05Q502.77 11.26 503.14 10.72Q503.38 10.37 503.76 10.13Q504.76 9.5 506.27 9.5Q508.75 9.5 510.19 10.32L511.09 8.16Q510.26 7.69 509.21 7.45Q508.18 7.19 506.27 7.19Q504.9 7.19 503.73 7.57Q502.56 7.95 501.71 8.62Q501 9.17 500.54 9.89Q500.46 10.02 500.38 10.16Q500.15 10.58 500.03 11.02Q499.9 11.52 499.9 12.05Q499.9 13.31 500.36 14.16Q500.61 14.62 500.94 15.01Q501.22 15.35 501.55 15.64Q502.27 16.26 503.1 16.77Q503.93 17.27 504.64 17.8Q505.36 18.32 505.83 18.97Q505.89 19.05 505.94 19.14ZM522.34 25.5Q524.05 24.94 525.31 23.86L524.45 22.13Q523.73 22.71 522.41 23.23Q521.1 23.75 519.52 23.75Q518.08 23.75 517.21 23.05Q516.93 22.82 516.7 22.51Q515.81 21.26 515.81 19.29Q515.81 18.82 515.88 18.21Q515.95 17.6 516.1 16.91Q516.6 16.95 517.06 16.97Q517.54 16.98 517.97 16.98Q522.71 16.98 525.2 15.53Q526.74 14.62 527.33 13.29Q527.69 12.48 527.69 11.51Q527.69 10.8 527.49 10.15Q527.45 10.01 527.4 9.87Q527.3 9.61 527.16 9.36Q526.9 8.9 526.49 8.51Q525.89 7.91 524.93 7.55Q523.98 7.19 522.68 7.19Q522.34 7.19 522 7.22Q520.56 7.36 519.17 8.05Q517.46 8.92 516.11 10.54Q514.76 12.16 513.93 14.51Q513.11 16.84 513.11 19.79Q513.11 22.74 514.57 24.4Q514.77 24.63 515.01 24.83Q516.43 26.05 518.9 26.05Q519.16 26.05 519.41 26.04Q520.89 25.97 522.34 25.5ZM566.22 25.5Q567.94 24.94 569.19 23.86L568.33 22.13Q567.61 22.71 566.29 23.23Q564.98 23.75 563.4 23.75Q561.96 23.75 561.1 23.05Q560.81 22.82 560.59 22.51Q559.69 21.26 559.69 19.29Q559.69 18.82 559.76 18.21Q559.83 17.6 559.98 16.91Q560.48 16.95 560.95 16.97Q561.42 16.98 561.85 16.98Q566.6 16.98 569.09 15.53Q570.63 14.62 571.21 13.29Q571.57 12.48 571.57 11.51Q571.57 10.8 571.38 10.15Q571.33 10.01 571.28 9.87Q571.18 9.61 571.04 9.36Q570.78 8.9 570.38 8.51Q569.77 7.91 568.81 7.55Q567.86 7.19 566.56 7.19Q566.22 7.19 565.89 7.22Q564.45 7.36 563.06 8.05Q561.34 8.92 559.99 10.54Q558.65 12.16 557.82 14.51Q556.99 16.84 556.99 19.79Q556.99 22.74 558.45 24.4Q558.66 24.63 558.89 24.83Q560.31 26.05 562.78 26.05Q563.04 26.05 563.3 26.04Q564.77 25.97 566.22 25.5ZM407.36 31.62Q409.21 29.98 409.97 26.45L413.78 8.41Q412.77 7.95 411.44 7.62Q410.11 7.3 408.17 7.3Q406.01 7.3 404.29 8.16Q404 8.31 403.72 8.49Q403.01 8.92 402.38 9.46Q401.31 10.37 400.48 11.57Q399.17 13.46 398.5 15.83Q398 17.63 397.88 19.45Q397.84 20.03 397.84 20.62Q397.84 23.22 399.02 24.62Q399.52 25.21 400.15 25.55Q401.02 26.02 402.15 26.02Q403.16 26.02 404.01 25.73Q404.72 25.49 405.34 25.12Q405.46 25.04 405.57 24.96Q406.29 24.47 406.88 23.87Q407.32 23.42 407.71 22.93Q407.85 22.75 407.99 22.57L408.13 22.57L407.48 25.59Q406.87 28.36 405.64 29.65Q405.05 30.28 404.32 30.6Q403.55 30.95 402.62 30.95Q401.47 30.95 400.62 30.8Q399.78 30.66 399.18 30.44Q398.59 30.23 398.17 29.99Q397.76 29.76 397.48 29.62L396.28 31.64Q397.08 32.07 398.59 32.66Q400.11 33.25 402.44 33.25Q405.18 33.25 406.95 31.95Q407.16 31.79 407.36 31.62ZM387.38 9.89Q387.72 9.93 388.05 10L388.77 7.62Q387.9 7.37 387.1 7.37Q386.24 7.37 385.52 7.64Q385.18 7.77 384.85 7.95Q384.51 8.14 384.19 8.38Q383.58 8.85 383.07 9.44Q382.57 10.03 382.14 10.72L382 10.72L382 7.62L380.13 7.62L376.3 25.62L379.01 25.62L381.49 13.82Q382.02 12.64 382.84 11.72Q383.18 11.34 383.57 11.01Q384.13 10.53 384.77 10.25Q385.67 9.86 386.74 9.86Q387.03 9.86 387.38 9.89ZM480.91 9.89Q481.25 9.93 481.57 10L482.29 7.62Q481.42 7.37 480.63 7.37Q479.77 7.37 479.05 7.64Q478.7 7.77 478.38 7.95Q478.03 8.14 477.71 8.38Q477.11 8.85 476.6 9.44Q476.1 10.03 475.67 10.72L475.53 10.72L475.53 7.62L473.65 7.62L469.83 25.62L472.54 25.62L475.02 13.82Q475.55 12.64 476.37 11.72Q476.71 11.34 477.1 11.01Q477.66 10.53 478.3 10.25Q479.2 9.86 480.27 9.86Q480.56 9.86 480.91 9.89ZM540.34 9.89Q540.68 9.93 541.01 10L541.73 7.62Q540.86 7.37 540.07 7.37Q539.21 7.37 538.49 7.64Q538.14 7.77 537.82 7.95Q537.47 8.14 537.15 8.38Q536.54 8.85 536.03 9.44Q535.53 10.03 535.1 10.72L534.96 10.72L534.96 7.62L533.09 7.62L529.27 25.62L531.97 25.62L534.45 13.82Q534.99 12.64 535.81 11.72Q536.15 11.34 536.53 11.01Q537.09 10.53 537.73 10.25Q538.64 9.86 539.71 9.86Q540 9.86 540.34 9.89ZM179.46 7.62L176.76 7.62L172.94 25.62L175.64 25.62L179.46 7.62ZM223.34 22.74L223.17 19.29L221.4 7.62L218.52 7.62L221.61 25.62Q220.32 28.18 219.27 29.26Q218.23 30.34 217.19 30.34Q216.72 30.34 216.32 30.19L215.46 32.68Q215.82 32.86 216.27 32.93Q216.72 33.01 217.33 33.01Q217.47 33.01 217.6 32.99Q218.57 32.91 219.49 32.21Q220.54 31.42 221.51 30.1Q222.48 28.79 223.39 27.12Q224.32 25.45 225.25 23.68L233.75 7.62L230.87 7.62L224.89 19.25L223.53 22.74L223.34 22.74ZM258.3 7.62L255.6 7.62L251.78 25.62L254.48 25.62L258.3 7.62ZM395.25 7.62L392.54 7.62L388.73 25.62L391.42 25.62L395.25 7.62ZM546.98 21.59L546.65 18.17L544.78 7.62L541.91 7.62L545.4 26.02L546.55 26.02L557.78 7.62L554.69 7.62L548.61 18.1L547.05 21.59L546.98 21.59ZM14.99 21.77Q16.02 21.52 16.84 21.05L16.09 18.93Q14.9 19.58 13.21 19.58Q11.74 19.55 10.85 18.82Q10.62 18.64 10.44 18.41Q9.5 17.27 9.5 15.18Q9.5 12.7 10.45 11.77Q10.74 11.49 11.07 11.3Q11.86 10.83 12.92 10.83Q13.42 10.83 14.15 10.97Q14.87 11.11 15.66 11.51L16.6 9.32Q16.05 9.1 15.62 8.92Q15.22 8.75 14.81 8.64Q14.78 8.63 14.74 8.62Q14.29 8.49 13.77 8.41Q13.25 8.34 12.6 8.34Q10.81 8.34 9.49 9.13Q8.81 9.53 8.26 10.13L8.25 10.13Q6.62 11.91 6.62 15.18Q6.62 18.36 8.15 20.19Q8.5 20.61 8.93 20.94Q10.36 22.02 12.6 22.02Q13.97 22.02 14.99 21.77ZM205.97 23.7Q205.68 23.75 205.38 23.75Q204.75 23.75 204.3 23.46Q203.93 23.23 203.68 22.8Q203.15 21.84 203.15 20.47Q203.15 18.5 203.58 16.52Q204.01 14.53 204.87 12.97Q205.74 11.4 207 10.44Q207.53 10.03 208.13 9.79Q208.96 9.46 209.91 9.46Q211.57 9.46 212.65 9.96L210.64 19.68Q210.31 20.3 209.77 21Q209.23 21.7 208.53 22.32Q207.82 22.93 207.03 23.34Q206.51 23.61 205.97 23.7ZM148.82 22.62Q148.03 21.48 148.03 19.36Q148.03 17.41 148.51 15.64Q149 13.86 149.85 12.48Q150.7 11.11 151.77 10.3Q152.63 9.66 153.56 9.53Q153.8 9.5 154.05 9.5Q155.68 9.5 156.39 10.31Q156.49 10.42 156.58 10.56Q157.25 11.62 157.25 13.46Q157.25 15.47 156.75 17.33Q156.27 19.18 155.46 20.62Q154.65 22.06 153.59 22.91Q152.74 23.58 151.81 23.72Q151.58 23.75 151.34 23.75Q150.06 23.75 149.29 23.12Q149.02 22.91 148.82 22.62ZM295.77 9.82Q296.61 9.5 297.57 9.5Q298.36 9.5 298.88 9.7Q299.41 9.89 299.7 10.2Q299.94 10.45 300.06 10.75Q300.09 10.82 300.11 10.88Q300.24 11.26 300.24 11.62Q300.24 12.44 299.86 13.01Q299.69 13.27 299.45 13.48Q298.65 14.14 297.45 14.44Q296.25 14.75 294.77 14.82Q293.29 14.89 291.92 14.89Q292.68 12.19 294.14 10.85Q294.88 10.16 295.77 9.82ZM489.45 9.82Q490.29 9.5 491.25 9.5Q492.04 9.5 492.56 9.7Q493.09 9.89 493.38 10.2Q493.62 10.45 493.74 10.75Q493.77 10.82 493.79 10.88Q493.92 11.26 493.92 11.62Q493.92 12.44 493.54 13.01Q493.37 13.27 493.13 13.48Q492.33 14.14 491.13 14.44Q489.93 14.75 488.45 14.82Q486.97 14.89 485.6 14.89Q486.36 12.19 487.82 10.85Q488.56 10.16 489.45 9.82ZM520.44 9.82Q521.28 9.5 522.25 9.5Q523.04 9.5 523.56 9.7Q524.09 9.89 524.38 10.2Q524.61 10.45 524.74 10.75Q524.77 10.82 524.79 10.88Q524.91 11.26 524.91 11.62Q524.91 12.44 524.54 13.01Q524.37 13.27 524.12 13.48Q523.33 14.14 522.13 14.44Q520.92 14.75 519.45 14.82Q517.97 14.89 516.6 14.89Q517.35 12.19 518.81 10.85Q519.56 10.16 520.44 9.82ZM564.33 9.82Q565.17 9.5 566.13 9.5Q566.92 9.5 567.44 9.7Q567.97 9.89 568.26 10.2Q568.5 10.45 568.62 10.75Q568.65 10.82 568.67 10.88Q568.8 11.26 568.8 11.62Q568.8 12.44 568.42 13.01Q568.25 13.27 568.01 13.48Q567.21 14.14 566.01 14.44Q564.81 14.75 563.33 14.82Q561.85 14.89 560.48 14.89Q561.24 12.19 562.7 10.85Q563.44 10.16 564.33 9.82ZM189 23.34Q188.21 23.75 187.45 23.75Q186.73 23.75 186.22 23.42Q185.83 23.15 185.58 22.69Q185 21.62 185 20.15Q185 18.14 185.43 16.23Q185.87 14.32 186.68 12.84Q187.49 11.37 188.64 10.49Q189.24 10.03 189.91 9.81Q190.54 9.6 191.23 9.6Q192.49 9.6 193.26 9.77Q194.04 9.93 194.65 10.32L192.64 19.68Q192.31 20.3 191.75 21Q191.2 21.7 190.49 22.32Q189.79 22.93 189 23.34ZM403.29 23.71Q403.23 23.72 403.16 23.72Q402.66 23.72 402.24 23.52Q401.75 23.29 401.38 22.77Q400.71 21.81 400.71 20.15Q400.71 18.07 401.25 16.16Q401.79 14.25 402.71 12.79Q403.63 11.33 404.89 10.47Q405.66 9.94 406.51 9.73Q407.06 9.6 407.63 9.6Q408.49 9.6 409.32 9.72Q410.14 9.82 410.72 10.15L408.89 18.82Q408.49 19.58 407.89 20.44Q407.61 20.85 407.29 21.24Q406.95 21.65 406.57 22.04Q405.89 22.72 405.08 23.17Q405.01 23.21 404.94 23.25Q404.12 23.68 403.29 23.71ZM580.53 23.34Q579.74 23.75 578.99 23.75Q578.26 23.75 577.76 23.42Q577.37 23.15 577.11 22.69Q576.53 21.62 576.53 20.15Q576.53 18.14 576.96 16.23Q577.4 14.32 578.21 12.84Q579.02 11.37 580.17 10.49Q580.77 10.03 581.45 9.81Q582.08 9.6 582.77 9.6Q584.02 9.6 584.8 9.77Q585.58 9.93 586.19 10.32L584.17 19.68Q583.85 20.3 583.28 21Q582.73 21.7 582.03 22.32Q581.32 22.93 580.53 23.34ZM304.94 22.66Q304.56 23.18 304.56 23.97Q304.56 24.65 304.86 25.14Q304.97 25.33 305.13 25.48Q305.28 25.63 305.45 25.74Q305.95 26.05 306.65 26.05Q307.33 26.05 307.82 25.75Q308 25.63 308.15 25.48Q308.32 25.32 308.44 25.12Q308.73 24.63 308.73 23.97Q308.73 23.19 308.36 22.68Q308.27 22.55 308.15 22.44Q308.01 22.3 307.85 22.2Q307.35 21.88 306.65 21.88Q305.93 21.88 305.43 22.2Q305.27 22.31 305.13 22.44Q305.02 22.54 304.94 22.66ZM591.82 22.66Q591.44 23.18 591.44 23.97Q591.44 24.65 591.74 25.14Q591.86 25.33 592.01 25.48Q592.16 25.63 592.33 25.74Q592.83 26.05 593.53 26.05Q594.22 26.05 594.71 25.75Q594.88 25.63 595.03 25.48Q595.2 25.32 595.32 25.12Q595.61 24.63 595.61 23.97Q595.61 23.19 595.24 22.68Q595.15 22.55 595.03 22.44Q594.89 22.3 594.73 22.2Q594.23 21.88 593.53 21.88Q592.82 21.88 592.31 22.2Q592.15 22.31 592.01 22.44Q591.9 22.54 591.82 22.66Z" fill="#EEECF1" fill-opacity="1.000000" fill-rule="evenodd"/>
</svg>
