<svg width="42" height="44" viewBox="0 0 42 44" fill="none" xmlns="http://www.w3.org/2000/svg">
<path d="M20.9167 20C23.2477 20 25.5264 19.4135 27.4645 18.3147C29.4027 17.2159 30.9133 15.6541 31.8053 13.8268C32.6974 11.9996 32.9308 9.98891 32.476 8.0491C32.0212 6.10929 30.8988 4.32746 29.2505 2.92894C27.6022 1.53041 25.5022 0.578004 23.216 0.192152C20.9298 -0.193701 18.5601 0.00433281 16.4065 0.761209C14.253 1.51809 12.4123 2.79981 11.1173 4.4443C9.82226 6.08879 9.13103 8.02219 9.13103 10C9.13103 12.6522 10.3727 15.1957 12.583 17.0711C14.7932 18.9464 17.791 20 20.9167 20ZM38.5953 45C39.3768 45 40.1262 44.7366 40.6788 44.2678C41.2313 43.7989 41.5417 43.163 41.5417 42.5C41.5417 37.8587 39.3688 33.4075 35.5008 30.1256C31.6329 26.8438 26.3868 25 20.9167 25C15.4467 25 10.2006 26.8438 6.33267 30.1256C2.46473 33.4075 0.291748 37.8587 0.291748 42.5C0.291748 43.163 0.602175 43.7989 1.15474 44.2678C1.7073 44.7366 2.45674 45 3.23818 45H38.5953Z" fill="black"/>
</svg>
