<svg width="57.000000" height="128.000000" viewBox="0 0 57 128" fill="none" xmlns="http://www.w3.org/2000/svg" xmlns:xlink="http://www.w3.org/1999/xlink">
	<desc>
			Created with Pixso.
	</desc>
	<defs>
		<clipPath id="clip109_5261">
			<rect id="Frame 7" rx="0.000000" width="56.000000" height="127.000000" transform="translate(0.500000 0.500000)" fill="white" fill-opacity="0"/>
		</clipPath>
	</defs>
	<rect id="Frame 7" rx="0.000000" width="56.000000" height="127.000000" transform="translate(0.500000 0.500000)" fill="#202846" fill-opacity="1.000000"/>
	<g clip-path="url(#clip109_5261)">
		<rect id="Rectangle 63" width="57.000000" height="43.500000" fill="#C4C4C4" fill-opacity="0.100000"/>
		<path id="UA" d="M34.12 29.65L40.14 29.65L41.71 34L45.74 34L38.69 14.25L35.86 14.25L28.8 34L32.64 34L34.12 29.65ZM27.21 14.4L23.57 14.4L23.57 26.77Q23.57 28.96 22.78 29.93Q22.7 30.03 22.62 30.12Q21.83 30.91 20.24 30.91Q19.34 30.91 18.66 30.71Q18.18 30.55 17.81 30.26Q17.67 30.14 17.54 30.01Q17.1 29.52 16.89 28.72Q16.68 27.92 16.68 26.77L16.68 14.4L12.84 14.4L12.84 27.53Q12.84 30.62 14.38 32.31Q16.23 34.33 20.29 34.33Q21.83 34.33 23.11 33.91Q24.18 33.56 24.97 32.9Q25.14 32.75 25.3 32.59Q26.2 31.7 26.7 30.33Q27.21 28.96 27.21 27.05L27.21 14.4ZM39.3 26.58L35.11 26.58L36.53 22.24L37.12 19.13L37.26 19.13L37.85 22.21L39.3 26.58Z" fill="#FFFFFF" fill-opacity="1.000000" fill-rule="evenodd"/>
		<path id="RU" d="M14.35 55.38Q13.61 55.48 12.97 55.59L12.97 75L16.81 75L16.81 66.96L18.82 67.33L23.27 75L27.7 75L23.22 67.52L21.84 66.65Q23.02 66.28 23.89 65.56Q24.42 65.12 24.84 64.55Q25.96 63.04 25.96 60.63Q25.96 59.01 25.33 57.93Q24.96 57.29 24.43 56.81Q24.07 56.49 23.65 56.24Q22.6 55.62 21.27 55.37Q21.26 55.37 21.25 55.37Q19.93 55.12 18.57 55.12Q17.98 55.12 17.28 55.14Q16.58 55.17 15.83 55.23Q15.1 55.28 14.35 55.38ZM44.11 55.4L40.46 55.4L40.46 67.77Q40.46 69.96 39.68 70.93Q39.6 71.03 39.52 71.12Q38.73 71.91 37.13 71.91Q36.24 71.91 35.56 71.71Q35.08 71.55 34.71 71.26Q34.57 71.14 34.44 71.01Q34 70.52 33.78 69.72Q33.58 68.92 33.58 67.77L33.58 55.4L29.74 55.4L29.74 68.53Q29.74 71.62 31.28 73.31Q33.12 75.33 37.19 75.33Q38.73 75.33 40.01 74.91Q41.08 74.56 41.87 73.9Q42.04 73.75 42.2 73.59Q43.1 72.7 43.6 71.33Q44.11 69.96 44.11 68.05L44.11 55.4ZM17.69 58.56Q18.26 58.53 18.85 58.53Q20.36 58.53 21.14 59.25Q21.33 59.42 21.47 59.62Q21.93 60.26 21.93 61.22Q21.93 62.71 21.18 63.45Q21.08 63.55 20.98 63.63Q20.03 64.36 18.43 64.36L16.81 64.36L16.81 58.67Q17.11 58.59 17.69 58.56Z" fill="#FFFFFF" fill-opacity="1.000000" fill-rule="evenodd"/>
		<path id="EN" d="M31.12 102.19L32.65 105.28L40.02 115.63L42.82 115.63L42.82 95.9L39.18 95.9L39.18 106.2L39.63 109.19L39.49 109.19L38.01 106.2L30.58 95.75L27.79 95.75L27.79 115.5L31.42 115.5L31.42 105.28L30.98 102.19L31.12 102.19ZM24.79 95.9L13.17 95.9L13.17 115.5L24.93 115.5L24.93 112.08L17.01 112.08L17.01 107.29L24.09 107.29L24.09 103.87L17.01 103.87L17.01 99.31L24.79 99.31L24.79 95.9Z" fill="#FFFFFF" fill-opacity="1.000000" fill-rule="evenodd"/>
	</g>
</svg>
